<svg width="19" height="19" viewBox="0 0 19 19" fill="none" xmlns="http://www.w3.org/2000/svg">
<path d="M9.90551 0H14.4249C14.8874 0 15.3317 0.185728 15.6594 0.513484L18.1322 2.98622C18.4599 3.31398 18.6457 3.75827 18.6457 4.22077V12.2362C18.6457 13.2013 17.8627 13.9842 16.8976 13.9842H9.90551C8.94045 13.9842 8.15748 13.2013 8.15748 12.2362V1.74803C8.15748 0.782972 8.94045 0 9.90551 0ZM1.74803 4.66142H6.99212V6.99212H2.33071V16.315H9.32283V15.1496H11.6535V16.8976C11.6535 17.8627 10.8706 18.6457 9.90551 18.6457H1.74803C0.782972 18.6457 0 17.8627 0 16.8976V6.40945C0 5.44439 0.782972 4.66142 1.74803 4.66142Z" fill="#C41E3A"/>
</svg>
