<svg width="99" height="99" viewBox="0 0 99 99" fill="none" xmlns="http://www.w3.org/2000/svg">
<g filter="url(#filter0_d_1_128)">
<rect x="4" width="90.2006" height="90.2006" rx="45.1003" fill="white" shape-rendering="crispEdges"/>
<rect x="5" y="1" width="88.2006" height="88.2006" rx="44.1003" stroke="#40E0D0" stroke-width="2" shape-rendering="crispEdges"/>
<g clip-path="url(#clip0_1_128)">
<path d="M61.9366 39.4628C64.196 39.4628 68.1269 41.3787 68.1269 43.6909C68.1269 46.0693 64.196 47.9191 61.9366 47.9191H54.2334L47.5939 59.5399C47.2173 60.2006 46.517 60.6036 45.7573 60.6036H42.0445C41.3442 60.6036 40.8355 59.9297 41.0271 59.2558L44.2642 47.9191H37.4728L34.6188 51.7244C34.4206 51.9887 34.1034 52.1473 33.7731 52.1473H30.9984C30.4831 52.1473 30.0735 51.731 30.0735 51.2223C30.0735 51.1365 30.0867 51.0506 30.1065 50.9647L32.1876 43.6909L30.1065 36.4172C30.0801 36.3313 30.0735 36.2454 30.0735 36.1595C30.0735 35.6442 30.4897 35.2346 30.9984 35.2346H33.7731C34.1034 35.2346 34.4206 35.3932 34.6188 35.6574L37.4728 39.4628H44.2708L41.0337 28.126C40.8355 27.4522 41.3442 26.7783 42.0445 26.7783H45.7573C46.517 26.7783 47.2173 27.1879 47.5939 27.842L54.2334 39.4628H61.9366Z" fill="#40E0D0"/>
</g>
</g>
<defs>
<filter id="filter0_d_1_128" x="0" y="0" width="98.2006" height="98.2007" filterUnits="userSpaceOnUse" color-interpolation-filters="sRGB">
<feFlood flood-opacity="0" result="BackgroundImageFix"/>
<feColorMatrix in="SourceAlpha" type="matrix" values="0 0 0 0 0 0 0 0 0 0 0 0 0 0 0 0 0 0 127 0" result="hardAlpha"/>
<feOffset dy="4"/>
<feGaussianBlur stdDeviation="2"/>
<feComposite in2="hardAlpha" operator="out"/>
<feColorMatrix type="matrix" values="0 0 0 0 0 0 0 0 0 0 0 0 0 0 0 0 0 0 0.25 0"/>
<feBlend mode="normal" in2="BackgroundImageFix" result="effect1_dropShadow_1_128"/>
<feBlend mode="normal" in="SourceGraphic" in2="effect1_dropShadow_1_128" result="shape"/>
</filter>
<clipPath id="clip0_1_128">
<rect width="38.0534" height="33.8252" fill="white" transform="translate(30.0735 26.7783)"/>
</clipPath>
</defs>
</svg>
