<svg width="99" height="99" viewBox="0 0 99 99" fill="none" xmlns="http://www.w3.org/2000/svg">
<g filter="url(#filter0_d_1_142)">
<rect x="4" width="90.2006" height="90.2006" rx="45.1003" fill="white" shape-rendering="crispEdges"/>
<rect x="5" y="1" width="88.2006" height="88.2006" rx="44.1003" stroke="#EC4899" stroke-width="2" shape-rendering="crispEdges"/>
<g clip-path="url(#clip0_1_142)">
<path d="M42.17 42.3236C44.3964 43.6911 46.3255 45.5013 47.8383 47.6418C48.3008 48.2958 48.7236 48.9829 49.1002 49.6898C49.4768 48.9763 49.8996 48.2958 50.362 47.6418C51.8749 45.5013 53.804 43.6911 56.0304 42.3236C58.9835 40.5068 62.4519 39.463 66.1449 39.463H66.799C67.5323 39.463 68.1269 40.0576 68.1269 40.7909C68.1269 50.5685 60.2057 58.4897 50.4281 58.4897H49.1002H47.7723C37.9947 58.4897 30.0735 50.5685 30.0735 40.7909C30.0735 40.0576 30.6681 39.463 31.4014 39.463H32.0554C35.7485 39.463 39.2169 40.5068 42.17 42.3236ZM49.9921 29.2625C51.0293 30.379 54.0286 34.006 55.5679 40.1368C53.0575 41.5638 50.8509 43.4929 49.1002 45.792C47.3495 43.4929 45.1429 41.5704 42.6324 40.1368C44.1651 34.006 47.1645 30.379 48.2083 29.2625C48.4395 29.0181 48.7633 28.8926 49.1002 28.8926C49.4371 28.8926 49.7608 29.0181 49.9921 29.2625Z" fill="#EC4899"/>
</g>
</g>
<defs>
<filter id="filter0_d_1_142" x="0" y="0" width="98.2006" height="98.2007" filterUnits="userSpaceOnUse" color-interpolation-filters="sRGB">
<feFlood flood-opacity="0" result="BackgroundImageFix"/>
<feColorMatrix in="SourceAlpha" type="matrix" values="0 0 0 0 0 0 0 0 0 0 0 0 0 0 0 0 0 0 127 0" result="hardAlpha"/>
<feOffset dy="4"/>
<feGaussianBlur stdDeviation="2"/>
<feComposite in2="hardAlpha" operator="out"/>
<feColorMatrix type="matrix" values="0 0 0 0 0 0 0 0 0 0 0 0 0 0 0 0 0 0 0.25 0"/>
<feBlend mode="normal" in2="BackgroundImageFix" result="effect1_dropShadow_1_142"/>
<feBlend mode="normal" in="SourceGraphic" in2="effect1_dropShadow_1_142" result="shape"/>
</filter>
<clipPath id="clip0_1_142">
<rect width="38.0534" height="33.8252" fill="white" transform="translate(30.0735 26.7786)"/>
</clipPath>
</defs>
</svg>
