<svg width="99" height="99" viewBox="0 0 99 99" fill="none" xmlns="http://www.w3.org/2000/svg">
<g filter="url(#filter0_d_1_135)">
<rect x="4" width="90.2006" height="90.2006" rx="45.1003" fill="white" shape-rendering="crispEdges"/>
<rect x="5" y="1" width="88.2006" height="88.2006" rx="44.1003" stroke="#D3AAFB" stroke-width="2" shape-rendering="crispEdges"/>
<g clip-path="url(#clip0_1_135)">
<path d="M36.4159 28.8926C34.0838 28.8926 32.1878 30.7886 32.1878 33.1207V50.0334H36.4159V33.1207H61.7848V50.0334H66.013V33.1207C66.013 30.7886 64.1169 28.8926 61.7848 28.8926H36.4159ZM29.228 52.1474C28.5278 52.1474 27.9596 52.7156 27.9596 53.4159C27.9596 56.217 30.2322 58.4897 33.0334 58.4897H65.1674C67.9685 58.4897 70.2411 56.217 70.2411 53.4159C70.2411 52.7156 69.673 52.1474 68.9727 52.1474H29.228Z" fill="#A855F7"/>
</g>
</g>
<defs>
<filter id="filter0_d_1_135" x="0" y="0" width="98.2007" height="98.2007" filterUnits="userSpaceOnUse" color-interpolation-filters="sRGB">
<feFlood flood-opacity="0" result="BackgroundImageFix"/>
<feColorMatrix in="SourceAlpha" type="matrix" values="0 0 0 0 0 0 0 0 0 0 0 0 0 0 0 0 0 0 127 0" result="hardAlpha"/>
<feOffset dy="4"/>
<feGaussianBlur stdDeviation="2"/>
<feComposite in2="hardAlpha" operator="out"/>
<feColorMatrix type="matrix" values="0 0 0 0 0 0 0 0 0 0 0 0 0 0 0 0 0 0 0.25 0"/>
<feBlend mode="normal" in2="BackgroundImageFix" result="effect1_dropShadow_1_135"/>
<feBlend mode="normal" in="SourceGraphic" in2="effect1_dropShadow_1_135" result="shape"/>
</filter>
<clipPath id="clip0_1_135">
<rect width="42.2816" height="33.8252" fill="white" transform="translate(27.9596 26.7786)"/>
</clipPath>
</defs>
</svg>
