<svg width="75" height="75" viewBox="0 0 75 75" fill="none" xmlns="http://www.w3.org/2000/svg">
<path d="M66.7969 30.7031C66.7969 30.7031 63.2813 33.9844 57.3047 37.8516C55.6641 28.3594 51.0938 16.6406 42.1875 2.34375C42.1875 2.34375 39.2578 17.6953 29.5313 32.1094C25.3125 25.5469 23.4375 20.3906 23.4375 20.3906C-7.03124 50.9766 18.2813 72.6562 34.2188 72.6562C54.6094 72.6562 72.5391 62.8125 66.7969 30.7031Z" fill="#FF9D33"/>
<path d="M54.7264 57.8907C56.4843 54.0236 57.7733 48.9845 58.0077 42.6564C58.0077 42.6564 55.5468 44.7657 51.328 47.4611C50.1561 41.1329 46.9921 33.3986 40.7811 23.7892C40.7811 23.7892 38.7889 33.9845 31.9921 43.7111C29.0624 39.3751 27.7733 35.8595 27.7733 35.8595C22.7343 43.8282 20.7421 50.1564 20.6249 55.1954C17.8124 54.1407 16.0546 53.3204 16.0546 53.3204C20.8593 67.6173 30.8202 70.7814 35.2733 70.7814C43.2421 70.7814 51.328 68.4376 59.2968 57.0704C59.2968 56.9532 57.5389 57.422 54.7264 57.8907Z" fill="#FFCE31"/>
<path d="M25.6642 51.4453C25.6642 51.4453 28.9454 55.8984 31.4064 54.8437C31.4064 54.8437 36.0939 47.4609 42.8907 43.3594C42.8907 43.3594 41.4845 54.6094 43.1251 56.6016C45.2345 59.2969 50.9767 53.6719 50.9767 53.6719C50.9767 60.3516 43.7111 68.6719 37.1486 68.6719C30.8204 68.6719 21.6798 61.4063 25.6642 51.4453Z" fill="#FFDF85"/>
<path d="M58.3594 21.2109C60.8203 17.6953 62.461 13.9453 62.461 13.9453C66.5625 20.7422 64.1016 24.8437 62.3438 26.1328C59.8828 28.0078 55.5469 25.3125 58.3594 21.2109ZM13.5938 20.0391C11.1328 15.9375 10.8985 10.7812 10.8985 10.7812C5.03908 19.5703 7.26564 24.4922 9.25783 25.8984C11.836 27.8906 16.2891 24.8438 13.5938 20.0391ZM27.1875 10.8984C27.5391 8.08594 26.3672 5.27344 26.3672 5.27344C31.875 8.90625 31.875 11.9531 31.1719 13.2422C30.1172 14.7656 26.836 14.0625 27.1875 10.8984Z" fill="#FF9D33"/>
</svg>
