<svg width="92" height="20" viewBox="0 0 92 20" fill="none" xmlns="http://www.w3.org/2000/svg">
<g clip-path="url(#clip0_72_141)">
<path d="M19.6875 10C19.6875 4.64844 15.3516 0.3125 10 0.3125C4.64844 0.3125 0.3125 4.64844 0.3125 10C0.3125 14.8352 3.85508 18.843 8.48633 19.5703V12.8004H6.02539V10H8.48633V7.86562C8.48633 5.43789 9.93164 4.09687 12.1453 4.09687C13.2055 4.09687 14.3141 4.28594 14.3141 4.28594V6.66875H13.0922C11.8891 6.66875 11.5137 7.41562 11.5137 8.18164V10H14.2004L13.7707 12.8004H11.5137V19.5703C16.1449 18.843 19.6875 14.8352 19.6875 10Z" fill="#D1D5DB"/>
</g>
<g clip-path="url(#clip1_72_141)">
<path d="M44.7539 5.50781C42.2695 5.50781 40.2656 7.51172 40.2656 9.99609C40.2656 12.4805 42.2695 14.4844 44.7539 14.4844C47.2383 14.4844 49.2422 12.4805 49.2422 9.99609C49.2422 7.51172 47.2383 5.50781 44.7539 5.50781ZM44.7539 12.9141C43.1484 12.9141 41.8359 11.6055 41.8359 9.99609C41.8359 8.38672 43.1445 7.07812 44.7539 7.07812C46.3633 7.07812 47.6719 8.38672 47.6719 9.99609C47.6719 11.6055 46.3594 12.9141 44.7539 12.9141ZM50.4727 5.32422C50.4727 5.90625 50.0039 6.37109 49.4258 6.37109C48.8438 6.37109 48.3789 5.90234 48.3789 5.32422C48.3789 4.74609 48.8477 4.27734 49.4258 4.27734C50.0039 4.27734 50.4727 4.74609 50.4727 5.32422ZM53.4453 6.38672C53.3789 4.98438 53.0586 3.74219 52.0312 2.71875C51.0078 1.69531 49.7656 1.375 48.3633 1.30469C46.918 1.22266 42.5859 1.22266 41.1406 1.30469C39.7422 1.37109 38.5 1.69141 37.4727 2.71484C36.4453 3.73828 36.1289 4.98047 36.0586 6.38281C35.9766 7.82812 35.9766 12.1602 36.0586 13.6055C36.125 15.0078 36.4453 16.25 37.4727 17.2734C38.5 18.2969 39.7383 18.6172 41.1406 18.6875C42.5859 18.7695 46.918 18.7695 48.3633 18.6875C49.7656 18.6211 51.0078 18.3008 52.0312 17.2734C53.0547 16.25 53.375 15.0078 53.4453 13.6055C53.5273 12.1602 53.5273 7.83203 53.4453 6.38672ZM51.5781 15.1562C51.2734 15.9219 50.6836 16.5117 49.9141 16.8203C48.7617 17.2773 46.0273 17.1719 44.7539 17.1719C43.4805 17.1719 40.7422 17.2734 39.5938 16.8203C38.8281 16.5156 38.2383 15.9258 37.9297 15.1562C37.4727 14.0039 37.5781 11.2695 37.5781 9.99609C37.5781 8.72266 37.4766 5.98438 37.9297 4.83594C38.2344 4.07031 38.8242 3.48047 39.5938 3.17187C40.7461 2.71484 43.4805 2.82031 44.7539 2.82031C46.0273 2.82031 48.7656 2.71875 49.9141 3.17187C50.6797 3.47656 51.2695 4.06641 51.5781 4.83594C52.0352 5.98828 51.9297 8.72266 51.9297 9.99609C51.9297 11.2695 52.0352 14.0078 51.5781 15.1562Z" fill="#D1D5DB"/>
</g>
<path d="M90.9711 4.84699C90.7257 3.92316 90.0028 3.19559 89.085 2.94867C87.4213 2.5 80.7502 2.5 80.7502 2.5C80.7502 2.5 74.0791 2.5 72.4154 2.94867C71.4975 3.19563 70.7746 3.92316 70.5293 4.84699C70.0835 6.52148 70.0835 10.0152 70.0835 10.0152C70.0835 10.0152 70.0835 13.5088 70.5293 15.1833C70.7746 16.1071 71.4975 16.8044 72.4154 17.0513C74.0791 17.5 80.7502 17.5 80.7502 17.5C80.7502 17.5 87.4213 17.5 89.085 17.0513C90.0028 16.8044 90.7257 16.1071 90.9711 15.1833C91.4169 13.5088 91.4169 10.0152 91.4169 10.0152C91.4169 10.0152 91.4169 6.52148 90.9711 4.84699ZM78.5683 13.1871V6.84316L84.1441 10.0152L78.5683 13.1871Z" fill="#D1D5DB"/>
<defs>
<clipPath id="clip0_72_141">
<path d="M0 0H20V20H0V0Z" fill="white"/>
</clipPath>
<clipPath id="clip1_72_141">
<path d="M36 0H53.5V20H36V0Z" fill="white"/>
</clipPath>
</defs>
</svg>
