<svg width="54" height="54" viewBox="0 0 54 54" fill="none" xmlns="http://www.w3.org/2000/svg">
<path d="M26.8479 32.5646L6.83958 52.5729C6.09097 53.3215 5.13819 53.6958 3.98125 53.6958C2.82431 53.6958 1.87153 53.3215 1.12292 52.5729C0.374304 51.8243 0 50.8715 0 49.7146C0 48.5576 0.374304 47.6049 1.12292 46.8562L21.1313 26.8479L1.12292 6.83958C0.374304 6.09097 0 5.13819 0 3.98125C0 2.82431 0.374304 1.87153 1.12292 1.12292C1.87153 0.374304 2.82431 0 3.98125 0C5.13819 0 6.09097 0.374304 6.83958 1.12292L26.8479 21.1313L46.8562 1.12292C47.6049 0.374304 48.5576 0 49.7146 0C50.8715 0 51.8243 0.374304 52.5729 1.12292C53.3215 1.87153 53.6958 2.82431 53.6958 3.98125C53.6958 5.13819 53.3215 6.09097 52.5729 6.83958L32.5646 26.8479L52.5729 46.8562C53.3215 47.6049 53.6958 48.5576 53.6958 49.7146C53.6958 50.8715 53.3215 51.8243 52.5729 52.5729C51.8243 53.3215 50.8715 53.6958 49.7146 53.6958C48.5576 53.6958 47.6049 53.3215 46.8562 52.5729L26.8479 32.5646Z" fill="white"/>
</svg>
